<?xml version="1.0" encoding="UTF-8"?>
<!DOCTYPE svg PUBLIC "-//W3C//DTD SVG 1.1//EN" "http://www.w3.org/Graphics/SVG/1.1/DTD/svg11.dtd">
<svg xmlns="http://www.w3.org/2000/svg" version="1.1" width="500px" height="500px" style="shape-rendering:geometricPrecision; text-rendering:geometricPrecision; image-rendering:optimizeQuality; fill-rule:evenodd; clip-rule:evenodd" xmlns:xlink="http://www.w3.org/1999/xlink">
<g><path style="opacity:1" fill="#f7fcfe" d="M -0.5,-0.5 C 166.167,-0.5 332.833,-0.5 499.5,-0.5C 499.5,166.167 499.5,332.833 499.5,499.5C 332.833,499.5 166.167,499.5 -0.5,499.5C -0.5,332.833 -0.5,166.167 -0.5,-0.5 Z"/></g>
<g><path style="opacity:1" fill="#86c339" d="M 161.5,142.5 C 153.167,144.5 144.833,146.5 136.5,148.5C 133.404,142.633 130.071,136.967 126.5,131.5C 116.992,130.177 107.325,130.177 97.5,131.5C 97.6236,132.107 97.9569,132.44 98.5,132.5C 104.099,142.033 109.433,151.7 114.5,161.5C 106.69,164.123 98.6899,166.457 90.5,168.5C 78.1639,148.132 66.1639,127.465 54.5,106.5C 83.5,105.167 112.5,105.167 141.5,106.5C 148.698,118.232 155.365,130.232 161.5,142.5 Z"/></g>
<g><path style="opacity:1" fill="#88c43c" d="M 210.5,130.5 C 202.915,134.14 194.915,136.806 186.5,138.5C 179.926,127.691 173.592,116.691 167.5,105.5C 177.167,104.167 186.833,104.167 196.5,105.5C 201.195,113.85 205.861,122.184 210.5,130.5 Z"/></g>
<g><path style="opacity:1" fill="#72c052" d="M 351.5,105.5 C 330.659,112.669 309.659,119.669 288.5,126.5C 292.11,119.867 295.777,113.201 299.5,106.5C 316.821,105.5 334.154,105.167 351.5,105.5 Z"/></g>
<g><path style="opacity:1" fill="#69be5f" d="M 351.5,105.5 C 360.167,105.5 368.833,105.5 377.5,105.5C 346.671,115.998 315.671,126.332 284.5,136.5C 283.893,136.376 283.56,136.043 283.5,135.5C 284.774,132.24 286.44,129.24 288.5,126.5C 309.659,119.669 330.659,112.669 351.5,105.5 Z"/></g>
<g><path style="opacity:1" fill="#62bd69" d="M 377.5,105.5 C 380.85,105.335 384.183,105.502 387.5,106C 385.601,108.988 383.601,111.821 381.5,114.5C 364.823,119.06 348.489,124.393 332.5,130.5C 326.491,130.334 320.491,130.501 314.5,131C 313.944,131.383 313.611,131.883 313.5,132.5C 302.226,136.036 290.893,139.369 279.5,142.5C 280.079,139.669 281.412,137.336 283.5,135.5C 283.56,136.043 283.893,136.376 284.5,136.5C 315.671,126.332 346.671,115.998 377.5,105.5 Z"/></g>
<g><path style="opacity:1" fill="#64be68" d="M 441.5,111.5 C 430.457,114.344 419.457,117.344 408.5,120.5C 410.762,115.48 413.428,110.647 416.5,106C 426.167,105.333 435.833,105.333 445.5,106C 444.303,108.015 442.97,109.849 441.5,111.5 Z"/></g>
<g><path style="opacity:1" fill="#57bc77" d="M 381.5,114.5 C 379.863,117.817 378.196,121.15 376.5,124.5C 365.54,127.319 354.707,130.653 344,134.5C 343.235,134.43 342.735,134.097 342.5,133.5C 342.804,132.85 343.137,132.183 343.5,131.5C 339.893,130.511 336.226,130.177 332.5,130.5C 348.489,124.393 364.823,119.06 381.5,114.5 Z"/></g>
<g><path style="opacity:1" fill="#5dbd72" d="M 441.5,111.5 C 439.003,117.165 436.003,122.498 432.5,127.5C 422.067,129.692 411.733,132.358 401.5,135.5C 400.893,135.376 400.56,135.043 400.5,134.5C 402.664,129.5 405.331,124.833 408.5,120.5C 419.457,117.344 430.457,114.344 441.5,111.5 Z"/></g>
<g><path style="opacity:1" fill="#d9edca" d="M 126.5,131.5 C 116.985,131.173 107.652,131.506 98.5,132.5C 97.9569,132.44 97.6236,132.107 97.5,131.5C 107.325,130.177 116.992,130.177 126.5,131.5 Z"/></g>
<g><path style="opacity:1" fill="#4fbb85" d="M 376.5,124.5 C 374.167,128.5 371.833,132.5 369.5,136.5C 358.513,139.329 347.679,142.662 337,146.5C 336.536,145.906 336.369,145.239 336.5,144.5C 337.742,140.345 339.742,136.678 342.5,133.5C 342.735,134.097 343.235,134.43 344,134.5C 354.707,130.653 365.54,127.319 376.5,124.5 Z"/></g>
<g><path style="opacity:1" fill="#7cc147" d="M 210.5,130.5 C 213.258,133.678 215.258,137.345 216.5,141.5C 208.804,144.765 200.804,147.432 192.5,149.5C 190.5,145.833 188.5,142.167 186.5,138.5C 194.915,136.806 202.915,134.14 210.5,130.5 Z"/></g>
<g><path style="opacity:1" fill="#5dbd72" d="M 313.5,132.5 C 311.863,136.118 309.863,139.451 307.5,142.5C 296.45,145.961 285.45,149.628 274.5,153.5C 273.893,153.376 273.56,153.043 273.5,152.5C 275,148.827 277,145.494 279.5,142.5C 290.893,139.369 302.226,136.036 313.5,132.5 Z"/></g>
<g><path style="opacity:1" fill="#53bb7f" d="M 432.5,127.5 C 429.5,132.833 426.5,138.167 423.5,143.5C 412.758,146.186 402.091,149.186 391.5,152.5C 390.893,152.376 390.56,152.043 390.5,151.5C 393.08,145.332 396.414,139.665 400.5,134.5C 400.56,135.043 400.893,135.376 401.5,135.5C 411.733,132.358 422.067,129.692 432.5,127.5 Z"/></g>
<g><path style="opacity:1" fill="#47ba91" d="M 369.5,136.5 C 367.485,139.869 365.485,143.202 363.5,146.5C 352.169,149.666 341.002,153.333 330,157.5C 329.601,157.272 329.435,156.938 329.5,156.5C 331.332,152.164 333.665,148.164 336.5,144.5C 336.369,145.239 336.536,145.906 337,146.5C 347.679,142.662 358.513,139.329 369.5,136.5 Z"/></g>
<g><path style="opacity:1" fill="#7cc147" d="M 161.5,142.5 C 164,145.494 166,148.827 167.5,152.5C 159.824,155.61 151.824,157.944 143.5,159.5C 140.931,156.039 138.597,152.372 136.5,148.5C 144.833,146.5 153.167,144.5 161.5,142.5 Z"/></g>
<g><path style="opacity:1" fill="#53bb7f" d="M 307.5,142.5 C 305.656,146.864 303.323,150.864 300.5,154.5C 289.22,158.038 277.886,161.371 266.5,164.5C 268.332,160.164 270.665,156.164 273.5,152.5C 273.56,153.043 273.893,153.376 274.5,153.5C 285.45,149.628 296.45,145.961 307.5,142.5 Z"/></g>
<g><path style="opacity:1" fill="#4bba8b" d="M 423.5,143.5 C 420.5,148.833 417.5,154.167 414.5,159.5C 403.928,161.768 393.428,164.435 383,167.5C 382.235,167.43 381.735,167.097 381.5,166.5C 384.263,161.299 387.263,156.299 390.5,151.5C 390.56,152.043 390.893,152.376 391.5,152.5C 402.091,149.186 412.758,146.186 423.5,143.5 Z"/></g>
<g><path style="opacity:1" fill="#6dbf5c" d="M 216.5,141.5 C 219.916,145.323 222.582,149.657 224.5,154.5C 224.53,155.497 224.03,156.164 223,156.5C 215.847,158.94 208.68,161.274 201.5,163.5C 198.514,158.87 195.514,154.203 192.5,149.5C 200.804,147.432 208.804,144.765 216.5,141.5 Z"/></g>
<g><path style="opacity:1" fill="#3db89e" d="M 363.5,146.5 C 361.754,150.327 359.754,153.993 357.5,157.5C 347.882,160.539 338.215,163.706 328.5,167C 326.613,167.78 324.946,167.613 323.5,166.5C 325,162.827 327,159.494 329.5,156.5C 329.435,156.938 329.601,157.272 330,157.5C 341.002,153.333 352.169,149.666 363.5,146.5 Z"/></g>
<g><path style="opacity:1" fill="#62be6a" d="M 224.5,154.5 C 226.653,156.794 228.32,159.46 229.5,162.5C 229.389,163.117 229.056,163.617 228.5,164C 221.101,166.41 213.768,168.91 206.5,171.5C 204.336,169.178 202.669,166.511 201.5,163.5C 208.68,161.274 215.847,158.94 223,156.5C 224.03,156.164 224.53,155.497 224.5,154.5 Z"/></g>
<g><path style="opacity:1" fill="#4bba8b" d="M 300.5,154.5 C 298.766,158.3 296.766,161.966 294.5,165.5C 283.004,168.22 271.671,171.553 260.5,175.5C 261.742,171.345 263.742,167.678 266.5,164.5C 277.886,161.371 289.22,158.038 300.5,154.5 Z"/></g>
<g><path style="opacity:1" fill="#73c054" d="M 167.5,152.5 C 170.335,156.164 172.668,160.164 174.5,164.5C 166.835,167.606 158.835,169.94 150.5,171.5C 147.665,167.836 145.332,163.836 143.5,159.5C 151.824,157.944 159.824,155.61 167.5,152.5 Z"/></g>
<g><path style="opacity:1" fill="#34b7ac" d="M 357.5,157.5 C 354.752,162.666 351.752,167.666 348.5,172.5C 336.902,176.157 325.568,179.49 314.5,182.5C 316.997,176.835 319.997,171.502 323.5,166.5C 324.946,167.613 326.613,167.78 328.5,167C 338.215,163.706 347.882,160.539 357.5,157.5 Z"/></g>
<g><path style="opacity:1" fill="#43b996" d="M 414.5,159.5 C 412.167,163.5 409.833,167.5 407.5,171.5C 396.503,173.957 385.669,176.957 375,180.5C 374.536,179.906 374.369,179.239 374.5,178.5C 376.848,174.465 379.182,170.465 381.5,166.5C 381.735,167.097 382.235,167.43 383,167.5C 393.428,164.435 403.928,161.768 414.5,159.5 Z"/></g>
<g><path style="opacity:1" fill="#77c14d" d="M 114.5,161.5 C 117.335,165.164 119.668,169.164 121.5,173.5C 113.5,175.833 105.5,178.167 97.5,180.5C 94.6654,176.836 92.332,172.836 90.5,168.5C 98.6899,166.457 106.69,164.123 114.5,161.5 Z"/></g>
<g><path style="opacity:1" fill="#6abf5f" d="M 174.5,164.5 C 177.323,168.136 179.656,172.136 181.5,176.5C 173.26,178.914 164.926,180.914 156.5,182.5C 154.25,179.001 152.25,175.335 150.5,171.5C 158.835,169.94 166.835,167.606 174.5,164.5 Z"/></g>
<g><path style="opacity:1" fill="#55bc7e" d="M 229.5,162.5 C 232.323,166.136 234.656,170.136 236.5,174.5C 228.784,177.739 220.784,180.405 212.5,182.5C 210.25,179.001 208.25,175.335 206.5,171.5C 213.768,168.91 221.101,166.41 228.5,164C 229.056,163.617 229.389,163.117 229.5,162.5 Z"/></g>
<g><path style="opacity:1" fill="#41b998" d="M 294.5,165.5 C 292.5,169.167 290.5,172.833 288.5,176.5C 277.54,179.319 266.707,182.653 256,186.5C 255.235,186.43 254.735,186.097 254.5,185.5C 256,181.827 258,178.494 260.5,175.5C 271.671,171.553 283.004,168.22 294.5,165.5 Z"/></g>
<g><path style="opacity:1" fill="#3db89f" d="M 407.5,171.5 C 405.167,175.5 402.833,179.5 400.5,183.5C 389.527,186.327 378.527,188.993 367.5,191.5C 369.439,186.91 371.773,182.577 374.5,178.5C 374.369,179.239 374.536,179.906 375,180.5C 385.669,176.957 396.503,173.957 407.5,171.5 Z"/></g>
<g><path style="opacity:1" fill="#4bba8b" d="M 236.5,174.5 C 238.083,176.663 239.416,178.996 240.5,181.5C 232.804,184.765 224.804,187.432 216.5,189.5C 214.914,187.33 213.58,184.996 212.5,182.5C 220.784,180.405 228.784,177.739 236.5,174.5 Z"/></g>
<g><path style="opacity:1" fill="#6ebf5a" d="M 121.5,173.5 C 123.988,176.466 125.988,179.799 127.5,183.5C 127.38,184.586 126.713,185.253 125.5,185.5C 118.148,187.504 110.815,189.504 103.5,191.5C 101.234,187.966 99.2336,184.3 97.5,180.5C 105.5,178.167 113.5,175.833 121.5,173.5 Z"/></g>
<g><path style="opacity:1" fill="#29b5bc" d="M 348.5,172.5 C 346.07,177.037 343.403,181.37 340.5,185.5C 329.22,189.038 317.886,192.371 306.5,195.5C 308.429,190.628 311.095,186.295 314.5,182.5C 325.568,179.49 336.902,176.157 348.5,172.5 Z"/></g>
<g><path style="opacity:1" fill="#39b7a3" d="M 288.5,176.5 C 286.5,179.833 284.5,183.167 282.5,186.5C 263.499,192.5 244.499,198.5 225.5,204.5C 223.914,202.33 222.58,199.996 221.5,197.5C 229.659,195.003 237.659,192.336 245.5,189.5C 246.644,191.1 247.811,192.767 249,194.5C 250.357,191.102 252.19,188.102 254.5,185.5C 254.735,186.097 255.235,186.43 256,186.5C 266.707,182.653 277.54,179.319 288.5,176.5 Z"/></g>
<g><path style="opacity:1" fill="#61bd6c" d="M 181.5,176.5 C 184.258,179.678 186.258,183.345 187.5,187.5C 187.389,188.117 187.056,188.617 186.5,189C 178.965,190.905 171.632,193.072 164.5,195.5C 161.095,191.705 158.429,187.372 156.5,182.5C 164.926,180.914 173.26,178.914 181.5,176.5 Z"/></g>
<g><path style="opacity:1" fill="#42b997" d="M 240.5,181.5 C 242.653,183.794 244.32,186.46 245.5,189.5C 237.659,192.336 229.659,195.003 221.5,197.5C 219.847,194.869 218.181,192.203 216.5,189.5C 224.804,187.432 232.804,184.765 240.5,181.5 Z"/></g>
<g><path style="opacity:1" fill="#32b6ad" d="M 282.5,186.5 C 280.863,190.118 278.863,193.451 276.5,196.5C 260.64,200.898 244.973,205.898 229.5,211.5C 228.167,209.167 226.833,206.833 225.5,204.5C 244.499,198.5 263.499,192.5 282.5,186.5 Z"/></g>
<g><path style="opacity:1" fill="#21b4c9" d="M 340.5,185.5 C 338.561,190.09 336.227,194.423 333.5,198.5C 333.631,197.761 333.464,197.094 333,196.5C 321.963,200.551 310.796,204.218 299.5,207.5C 301.848,203.465 304.182,199.465 306.5,195.5C 317.886,192.371 329.22,189.038 340.5,185.5 Z"/></g>
<g><path style="opacity:1" fill="#65be66" d="M 127.5,183.5 C 130.227,187.577 132.561,191.91 134.5,196.5C 126.712,199.203 118.712,201.536 110.5,203.5C 108.167,199.5 105.833,195.5 103.5,191.5C 110.815,189.504 118.148,187.504 125.5,185.5C 126.713,185.253 127.38,184.586 127.5,183.5 Z"/></g>
<g><path style="opacity:1" fill="#58bc78" d="M 187.5,187.5 C 190.623,190.976 192.957,194.976 194.5,199.5C 186.202,201.658 177.868,203.658 169.5,205.5C 167.308,202.45 165.642,199.117 164.5,195.5C 171.632,193.072 178.965,190.905 186.5,189C 187.056,188.617 187.389,188.117 187.5,187.5 Z"/></g>
<g><path style="opacity:1" fill="#34b7ac" d="M 400.5,183.5 C 396.152,190.869 391.819,198.202 387.5,205.5C 377.067,207.692 366.733,210.358 356.5,213.5C 355.702,213.043 355.369,212.376 355.5,211.5C 359.012,204.466 363.012,197.799 367.5,191.5C 378.527,188.993 389.527,186.327 400.5,183.5 Z"/></g>
<g><path style="opacity:1" fill="#2bb5b8" d="M 276.5,196.5 C 275.404,199.032 274.071,201.365 272.5,203.5C 259.027,207.435 245.694,211.769 232.5,216.5C 231.248,214.999 230.248,213.332 229.5,211.5C 244.973,205.898 260.64,200.898 276.5,196.5 Z"/></g>
<g><path style="opacity:1" fill="#5cbd72" d="M 134.5,196.5 C 137.623,199.976 139.957,203.976 141.5,208.5C 133.167,210.5 124.833,212.5 116.5,214.5C 114.5,210.833 112.5,207.167 110.5,203.5C 118.712,201.536 126.712,199.203 134.5,196.5 Z"/></g>
<g><path style="opacity:1" fill="#18b2d6" d="M 333.5,198.5 C 331.988,202.201 329.988,205.534 327.5,208.5C 327.265,207.903 326.765,207.57 326,207.5C 315.293,211.347 304.46,214.681 293.5,217.5C 295.5,214.167 297.5,210.833 299.5,207.5C 310.796,204.218 321.963,200.551 333,196.5C 333.464,197.094 333.631,197.761 333.5,198.5 Z"/></g>
<g><path style="opacity:1" fill="#4fbb85" d="M 194.5,199.5 C 197.335,203.164 199.668,207.164 201.5,211.5C 193.374,214.319 185.04,216.319 176.5,217.5C 174.167,213.5 171.833,209.5 169.5,205.5C 177.868,203.658 186.202,201.658 194.5,199.5 Z"/></g>
<g><path style="opacity:1" fill="#2bb5b8" d="M 387.5,205.5 C 385.988,209.201 383.988,212.534 381.5,215.5C 370.456,218.344 359.456,221.344 348.5,224.5C 350.439,219.91 352.773,215.577 355.5,211.5C 355.369,212.376 355.702,213.043 356.5,213.5C 366.733,210.358 377.067,207.692 387.5,205.5 Z"/></g>
<g><path style="opacity:1" fill="#24b4c3" d="M 272.5,203.5 C 270.656,207.864 268.323,211.864 265.5,215.5C 255.79,217.017 246.123,219.684 236.5,223.5C 235.172,221.207 233.839,218.873 232.5,216.5C 245.694,211.769 259.027,207.435 272.5,203.5 Z"/></g>
<g><path style="opacity:1" fill="#12b1e2" d="M 327.5,208.5 C 326,212.173 324,215.506 321.5,218.5C 309.798,222.274 298.132,225.941 286.5,229.5C 288.833,225.5 291.167,221.5 293.5,217.5C 304.46,214.681 315.293,211.347 326,207.5C 326.765,207.57 327.265,207.903 327.5,208.5 Z"/></g>
<g><path style="opacity:1" fill="#21b3cd" d="M 265.5,215.5 C 263.668,219.836 261.335,223.836 258.5,227.5C 257.054,226.387 255.387,226.22 253.5,227C 250,228.167 246.5,229.333 243,230.5C 241.97,230.836 241.47,231.503 241.5,232.5C 239.44,229.76 237.774,226.76 236.5,223.5C 246.123,219.684 255.79,217.017 265.5,215.5 Z"/></g>
<g><path style="opacity:1" fill="#53bb7f" d="M 141.5,208.5 C 144.335,212.164 146.668,216.164 148.5,220.5C 140.161,222.503 131.827,224.503 123.5,226.5C 121.167,222.5 118.833,218.5 116.5,214.5C 124.833,212.5 133.167,210.5 141.5,208.5 Z"/></g>
<g><path style="opacity:1" fill="#46b991" d="M 201.5,211.5 C 204,214.494 206,217.827 207.5,221.5C 207.38,222.586 206.713,223.253 205.5,223.5C 198.206,225.71 190.873,227.71 183.5,229.5C 181.167,225.5 178.833,221.5 176.5,217.5C 185.04,216.319 193.374,214.319 201.5,211.5 Z"/></g>
<g><path style="opacity:1" fill="#0db0ee" d="M 321.5,218.5 C 307.616,244.6 292.949,270.267 277.5,295.5C 272.563,287.291 267.897,278.958 263.5,270.5C 270.909,256.682 278.576,243.015 286.5,229.5C 298.132,225.941 309.798,222.274 321.5,218.5 Z"/></g>
<g><path style="opacity:1" fill="#4bba8b" d="M 148.5,220.5 C 151,223.494 153,226.827 154.5,230.5C 146.835,233.606 138.835,235.94 130.5,237.5C 127.931,234.039 125.597,230.372 123.5,226.5C 131.827,224.503 140.161,222.503 148.5,220.5 Z"/></g>
<g><path style="opacity:1" fill="#1fb3dc" d="M 258.5,227.5 C 255.931,233.641 252.598,239.307 248.5,244.5C 245.639,240.773 243.305,236.773 241.5,232.5C 241.47,231.503 241.97,230.836 243,230.5C 246.5,229.333 250,228.167 253.5,227C 255.387,226.22 257.054,226.387 258.5,227.5 Z"/></g>
<g><path style="opacity:1" fill="#25b4c3" d="M 381.5,215.5 C 378.67,221.83 375.337,227.83 371.5,233.5C 371.53,232.503 371.03,231.836 370,231.5C 359.873,234.407 349.706,237.073 339.5,239.5C 341.749,233.995 344.749,228.995 348.5,224.5C 359.456,221.344 370.456,218.344 381.5,215.5 Z"/></g>
<g><path style="opacity:1" fill="#3db89e" d="M 207.5,221.5 C 210.323,225.136 212.656,229.136 214.5,233.5C 214.119,234.931 213.119,235.764 211.5,236C 204.346,238.442 197.013,239.942 189.5,240.5C 187.5,236.833 185.5,233.167 183.5,229.5C 190.873,227.71 198.206,225.71 205.5,223.5C 206.713,223.253 207.38,222.586 207.5,221.5 Z"/></g>
<g><path style="opacity:1" fill="#41b998" d="M 154.5,230.5 C 157.323,234.136 159.656,238.136 161.5,242.5C 153.875,245.744 145.875,248.077 137.5,249.5C 134.665,245.836 132.332,241.836 130.5,237.5C 138.835,235.94 146.835,233.606 154.5,230.5 Z"/></g>
<g><path style="opacity:1" fill="#1cb3cf" d="M 371.5,233.5 C 368.404,239.367 365.071,245.033 361.5,250.5C 361.38,249.414 360.713,248.747 359.5,248.5C 348.834,251.056 338.501,254.389 328.5,258.5C 331.917,251.995 335.584,245.662 339.5,239.5C 349.706,237.073 359.873,234.407 370,231.5C 371.03,231.836 371.53,232.503 371.5,233.5 Z"/></g>
<g><path style="opacity:1" fill="#34b7ac" d="M 214.5,233.5 C 218.003,238.502 221.003,243.835 223.5,249.5C 215.78,252.74 207.78,255.407 199.5,257.5C 196.167,251.833 192.833,246.167 189.5,240.5C 197.013,239.942 204.346,238.442 211.5,236C 213.119,235.764 214.119,234.931 214.5,233.5 Z"/></g>
<g><path style="opacity:1" fill="#39b8a4" d="M 161.5,242.5 C 164.258,245.678 166.258,249.345 167.5,253.5C 167.389,254.117 167.056,254.617 166.5,255C 158.924,257.311 151.257,259.144 143.5,260.5C 140.742,257.322 138.742,253.655 137.5,249.5C 145.875,248.077 153.875,245.744 161.5,242.5 Z"/></g>
<g><path style="opacity:1" fill="#16b2db" d="M 361.5,250.5 C 359.336,255.5 356.669,260.167 353.5,264.5C 342.471,266.005 331.471,268.672 320.5,272.5C 322.664,267.5 325.331,262.833 328.5,258.5C 338.501,254.389 348.834,251.056 359.5,248.5C 360.713,248.747 361.38,249.414 361.5,250.5 Z"/></g>
<g><path style="opacity:1" fill="#29b5bc" d="M 223.5,249.5 C 226.669,253.833 229.336,258.5 231.5,263.5C 223.516,265.83 215.516,268.163 207.5,270.5C 204.597,266.37 201.93,262.037 199.5,257.5C 207.78,255.407 215.78,252.74 223.5,249.5 Z"/></g>
<g><path style="opacity:1" fill="#32b6b0" d="M 167.5,253.5 C 170,256.494 172,259.827 173.5,263.5C 165.78,266.74 157.78,269.407 149.5,271.5C 147.234,267.966 145.234,264.3 143.5,260.5C 151.257,259.144 158.924,257.311 166.5,255C 167.056,254.617 167.389,254.117 167.5,253.5 Z"/></g>
<g><path style="opacity:1" fill="#11b0e4" d="M 353.5,264.5 C 352.32,267.54 350.653,270.206 348.5,272.5C 337.353,275.036 326.353,278.036 315.5,281.5C 316.41,278.008 318.076,275.008 320.5,272.5C 331.471,268.672 342.471,266.005 353.5,264.5 Z"/></g>
<g><path style="opacity:1" fill="#21b4c9" d="M 231.5,263.5 C 234.335,267.164 236.668,271.164 238.5,275.5C 230.607,278.141 222.607,280.474 214.5,282.5C 211.665,278.836 209.332,274.836 207.5,270.5C 215.516,268.163 223.516,265.83 231.5,263.5 Z"/></g>
<g><path style="opacity:1" fill="#29b5bc" d="M 173.5,263.5 C 176.669,267.833 179.336,272.5 181.5,277.5C 173.5,279.833 165.5,282.167 157.5,284.5C 154.597,280.37 151.93,276.037 149.5,271.5C 157.78,269.407 165.78,266.74 173.5,263.5 Z"/></g>
<g><path style="opacity:1" fill="#0aafee" d="M 348.5,272.5 C 325.61,313.275 302.443,353.941 279,394.5C 261.65,365.8 244.817,336.8 228.5,307.5C 228.577,306.25 229.244,305.417 230.5,305C 237.956,303.125 245.289,300.958 252.5,298.5C 260.902,313.636 269.569,328.636 278.5,343.5C 290.859,322.77 303.193,302.103 315.5,281.5C 326.353,278.036 337.353,275.036 348.5,272.5 Z"/></g>
<g><path style="opacity:1" fill="#1bb2d6" d="M 238.5,275.5 C 241.069,278.961 243.403,282.628 245.5,286.5C 238.289,288.958 230.956,291.125 223.5,293C 222.244,293.417 221.577,294.25 221.5,295.5C 218.773,291.423 216.439,287.09 214.5,282.5C 222.607,280.474 230.607,278.141 238.5,275.5 Z"/></g>
<g><path style="opacity:1" fill="#21b4c9" d="M 181.5,277.5 C 184.335,281.164 186.668,285.164 188.5,289.5C 180.516,291.83 172.516,294.163 164.5,296.5C 161.665,292.836 159.332,288.836 157.5,284.5C 165.5,282.167 173.5,279.833 181.5,277.5 Z"/></g>
<g><path style="opacity:1" fill="#12b1e2" d="M 245.5,286.5 C 247.833,290.5 250.167,294.5 252.5,298.5C 245.289,300.958 237.956,303.125 230.5,305C 229.244,305.417 228.577,306.25 228.5,307.5C 226.182,303.535 223.848,299.535 221.5,295.5C 221.577,294.25 222.244,293.417 223.5,293C 230.956,291.125 238.289,288.958 245.5,286.5 Z"/></g>
<g><path style="opacity:1" fill="#19b2d6" d="M 188.5,289.5 C 191.335,293.164 193.668,297.164 195.5,301.5C 187.046,302.655 179.046,304.989 171.5,308.5C 168.377,305.024 166.043,301.024 164.5,296.5C 172.516,294.163 180.516,291.83 188.5,289.5 Z"/></g>
<g><path style="opacity:1" fill="#13b1e2" d="M 195.5,301.5 C 198.335,305.164 200.668,309.164 202.5,313.5C 195.108,315.015 187.774,316.848 180.5,319C 179.244,319.417 178.577,320.25 178.5,321.5C 175.773,317.423 173.439,313.09 171.5,308.5C 179.046,304.989 187.046,302.655 195.5,301.5 Z"/></g>
<g><path style="opacity:1" fill="#0aafee" d="M 202.5,313.5 C 218.266,340.188 233.933,367.022 249.5,394C 239.833,394.667 230.167,394.667 220.5,394C 206.109,370.051 192.109,345.885 178.5,321.5C 178.577,320.25 179.244,319.417 180.5,319C 187.774,316.848 195.108,315.015 202.5,313.5 Z"/></g>
</svg>
